<?xml version="1.0" standalone="no"?>
<!DOCTYPE svg PUBLIC "-//W3C//DTD SVG 20010904//EN"
 "http://www.w3.org/TR/2001/REC-SVG-20010904/DTD/svg10.dtd">
<svg version="1.0" xmlns="http://www.w3.org/2000/svg"
 width="1024.000000pt" height="1024.000000pt" viewBox="0 0 1024.000000 1024.000000"
 preserveAspectRatio="xMidYMid meet">

<g transform="translate(0.000000,1024.000000) scale(0.100000,-0.100000)"
fill="#000000" stroke="none">
<path d="M3385 8399 c-467 -48 -850 -230 -1166 -556 -268 -277 -431 -608 -496
-1013 -17 -108 -18 -208 -18 -1715 0 -1481 1 -1608 18 -1709 48 -300 138 -533
296 -767 311 -462 801 -752 1366 -809 77 -8 617 -10 1815 -8 l1705 4 114 22
c377 73 674 223 939 476 318 305 504 671 564 1111 19 147 19 3213 0 3359 -75
548 -356 1007 -802 1307 -105 71 -315 171 -447 213 -125 40 -286 71 -448 86
-133 12 -3320 11 -3440 -1z m3560 -429 c587 -100 1023 -530 1157 -1140 l23
-105 0 -1605 c0 -1532 -1 -1609 -19 -1695 -65 -312 -194 -554 -410 -771 -174
-174 -351 -283 -569 -353 -220 -70 -93 -66 -2002 -66 -1925 0 -1794 -5 -2024
72 -221 73 -384 175 -556 348 -219 218 -340 437 -407 736 l-23 104 0 1605 c0
1525 1 1610 19 1705 27 144 77 290 146 424 211 407 589 679 1040 746 66 10
471 13 1797 14 1668 1 1714 1 1828 -19z"/>
<path d="M6940 7066 c-19 -7 -307 -137 -640 -288 -333 -152 -859 -390 -1170
-531 -311 -140 -842 -382 -1180 -537 -338 -155 -695 -319 -793 -363 -237 -108
-275 -147 -265 -273 6 -65 42 -116 109 -154 37 -20 1174 -568 1557 -750 l112
-53 0 -362 c0 -204 4 -386 10 -416 24 -128 160 -203 278 -154 47 20 78 50 105
100 20 36 22 59 27 258 l5 217 375 -387 c207 -214 413 -427 459 -475 96 -101
143 -128 222 -128 66 0 133 37 167 92 26 42 120 449 333 1438 532 2470 555
2582 540 2637 -30 109 -146 168 -251 129z m-491 -713 c-19 -25 -1282 -1481
-1571 -1811 l-29 -34 -547 258 c-301 141 -576 270 -611 286 -35 16 -60 33 -55
37 7 6 2531 1157 2764 1260 57 25 66 25 49 4z m55 -773 c-58 -256 -206 -933
-374 -1713 -54 -253 -101 -461 -104 -464 -3 -3 -97 88 -209 203 -328 337 -622
644 -625 652 -2 8 236 286 677 792 147 168 343 393 435 500 172 198 248 282
252 277 2 -1 -22 -113 -52 -247z"/>
</g>
</svg>
