<?xml version="1.0" standalone="no"?>
<!DOCTYPE svg PUBLIC "-//W3C//DTD SVG 20010904//EN"
 "http://www.w3.org/TR/2001/REC-SVG-20010904/DTD/svg10.dtd">
<svg version="1.0" xmlns="http://www.w3.org/2000/svg"
 width="1024.000000pt" height="1024.000000pt" viewBox="0 0 1024.000000 1024.000000"
 preserveAspectRatio="xMidYMid meet">

<g transform="translate(0.000000,1024.000000) scale(0.100000,-0.100000)"
fill="#000000" stroke="none">
<path d="M4815 8190 c-439 -24 -875 -118 -1247 -271 -885 -364 -1505 -1089
-1663 -1946 -96 -519 -27 -1040 198 -1488 209 -417 580 -807 998 -1049 76 -44
83 -55 75 -133 -3 -38 -35 -257 -71 -488 -67 -431 -75 -522 -52 -578 37 -87
117 -141 212 -141 79 -1 95 9 575 326 212 140 473 312 580 382 l195 128 75 -7
c41 -3 127 -10 190 -15 153 -13 567 -13 705 0 580 53 1120 228 1555 503 454
287 786 647 1005 1091 160 324 221 580 232 963 12 443 -64 773 -273 1185 -245
481 -685 908 -1209 1170 -380 191 -813 306 -1325 353 -199 18 -563 25 -755 15z
m646 -190 c993 -77 1735 -429 2244 -1065 136 -169 297 -464 370 -674 43 -127
78 -263 102 -396 25 -143 25 -528 0 -676 -77 -460 -291 -873 -630 -1218 -595
-604 -1451 -917 -2432 -888 -115 4 -271 13 -345 21 -97 10 -148 12 -183 4 -36
-7 -151 -78 -505 -310 -723 -476 -737 -485 -771 -503 -43 -22 -73 -16 -89 17
-11 23 -10 42 2 115 9 48 24 144 35 213 11 69 38 244 61 390 64 405 56 442
-105 547 -222 143 -288 189 -381 267 -306 257 -543 599 -668 964 -201 588
-142 1253 160 1803 372 677 1066 1154 1929 1324 125 25 385 61 490 68 121 8
593 6 716 -3z"/>
<path d="M4343 6250 c-12 -5 -28 -19 -36 -32 -8 -13 -71 -196 -140 -408 -69
-212 -160 -491 -203 -620 -42 -129 -79 -253 -82 -274 -7 -59 10 -66 145 -66
138 0 142 3 193 130 18 47 38 91 43 98 7 9 68 12 266 10 l256 -3 38 -95 c53
-133 54 -134 188 -138 121 -4 139 2 139 48 0 16 -43 162 -96 327 -207 644
-316 979 -326 996 -5 10 -20 22 -34 27 -32 12 -321 12 -351 0z m274 -618 c39
-128 74 -244 77 -258 l6 -24 -180 0 c-145 0 -180 3 -180 14 0 7 36 124 81 260
106 325 98 325 196 8z"/>
<path d="M2821 6224 c-18 -23 -21 -41 -21 -130 0 -80 3 -106 16 -118 13 -13
46 -16 200 -16 l184 0 0 -538 c0 -509 1 -540 18 -555 15 -14 42 -17 149 -17
113 0 132 2 146 18 15 17 17 73 19 553 l3 534 193 5 c157 4 195 8 202 20 16
26 22 77 18 156 -6 124 44 114 -578 114 l-529 0 -20 -26z"/>
<path d="M5324 6236 c-18 -14 -19 -33 -19 -686 0 -653 1 -672 19 -686 16 -11
89 -14 411 -14 472 0 430 -15 429 152 -1 157 16 148 -280 148 -220 0 -234 1
-244 19 -6 13 -10 199 -10 534 0 485 -1 515 -18 530 -25 23 -257 25 -288 3z"/>
<path d="M6336 6228 c-14 -20 -16 -101 -16 -678 0 -577 2 -658 16 -678 14 -21
22 -22 148 -22 92 0 138 4 150 13 15 11 17 32 17 194 l-1 181 48 63 c64 85 71
93 76 88 2 -2 81 -120 175 -262 119 -178 180 -261 197 -268 34 -12 270 -12
295 1 10 6 19 21 19 33 0 12 -45 90 -99 172 -285 434 -371 567 -371 575 0 4
22 35 48 67 27 32 113 137 193 233 218 264 216 261 183 294 -13 13 -42 16
-164 16 l-149 0 -48 -58 c-26 -32 -124 -158 -218 -280 -93 -121 -173 -221
-176 -221 -4 -1 -5 99 -2 222 2 122 1 241 -2 264 -10 70 -18 73 -170 73 -127
0 -135 -1 -149 -22z"/>
</g>
</svg>
